<svg width="910" height="449" viewBox="0 0 910 449" fill="none" xmlns="http://www.w3.org/2000/svg">
<g filter="url(#filter0_d_611_7)">
<rect x="320" width="281" height="438" rx="25" fill="#323232"/>
</g>
<g filter="url(#filter1_d_611_7)">
<rect x="631" y="106" width="275" height="334" rx="25" fill="#323232"/>
</g>
<g filter="url(#filter2_d_611_7)">
<rect x="4" y="186" width="286" height="252" rx="25" fill="#323232"/>
</g>
<g filter="url(#filter3_d_611_7)">
<rect x="420" y="299" width="88" height="100" fill="#E0DBAC"/>
</g>
<g filter="url(#filter4_f_611_7)">
<rect x="420" y="299" width="88" height="100" fill="#E0DBAC"/>
</g>
<g filter="url(#filter5_d_611_7)">
<rect x="92" y="299" width="89" height="100" fill="#FFD292"/>
</g>
<g filter="url(#filter6_f_611_7)">
<rect x="92" y="299" width="89" height="100" fill="#FFD292"/>
</g>
<g filter="url(#filter7_d_611_7)">
<rect x="723" y="299" width="89" height="100" fill="#8E8E8E"/>
</g>
<g filter="url(#filter8_f_611_7)">
<rect x="730" y="299" width="89" height="100" fill="#8E8E8E"/>
</g>
<path d="M438.46 44.4545V91H428.619V53.7955H428.347L417.688 60.4773V51.75L429.21 44.4545H438.46ZM478.659 66.0455L469.795 66.5909C469.644 65.8333 469.318 65.1515 468.818 64.5455C468.318 63.9242 467.659 63.4318 466.841 63.0682C466.038 62.6894 465.076 62.5 463.955 62.5C462.455 62.5 461.189 62.8182 460.159 63.4545C459.129 64.0758 458.614 64.9091 458.614 65.9545C458.614 66.7879 458.947 67.4924 459.614 68.0682C460.28 68.6439 461.424 69.1061 463.045 69.4545L469.364 70.7273C472.758 71.4242 475.288 72.5455 476.955 74.0909C478.621 75.6364 479.455 77.6667 479.455 80.1818C479.455 82.4697 478.78 84.4773 477.432 86.2045C476.098 87.9318 474.265 89.2803 471.932 90.25C469.614 91.2045 466.939 91.6818 463.909 91.6818C459.288 91.6818 455.606 90.7197 452.864 88.7955C450.136 86.8561 448.538 84.2197 448.068 80.8864L457.591 80.3864C457.879 81.7955 458.576 82.8712 459.682 83.6136C460.788 84.3409 462.205 84.7045 463.932 84.7045C465.629 84.7045 466.992 84.3788 468.023 83.7273C469.068 83.0606 469.598 82.2045 469.614 81.1591C469.598 80.2803 469.227 79.5606 468.5 79C467.773 78.4242 466.652 77.9848 465.136 77.6818L459.091 76.4773C455.682 75.7955 453.144 74.6136 451.477 72.9318C449.826 71.25 449 69.1061 449 66.5C449 64.2576 449.606 62.3258 450.818 60.7045C452.045 59.0833 453.765 57.8333 455.977 56.9545C458.205 56.0758 460.811 55.6364 463.795 55.6364C468.205 55.6364 471.674 56.5682 474.205 58.4318C476.75 60.2955 478.235 62.8333 478.659 66.0455ZM504.119 56.0909V63.3636H483.097V56.0909H504.119ZM487.869 47.7273H497.551V80.2727C497.551 81.1667 497.688 81.8636 497.96 82.3636C498.233 82.8485 498.612 83.1894 499.097 83.3864C499.597 83.5833 500.172 83.6818 500.824 83.6818C501.278 83.6818 501.733 83.6439 502.188 83.5682C502.642 83.4773 502.991 83.4091 503.233 83.3636L504.756 90.5682C504.271 90.7197 503.589 90.8939 502.71 91.0909C501.831 91.303 500.763 91.4318 499.506 91.4773C497.172 91.5682 495.127 91.2576 493.369 90.5455C491.627 89.8333 490.271 88.7273 489.301 87.2273C488.331 85.7273 487.854 83.8333 487.869 81.5455V47.7273Z" fill="white"/>
<path d="M711.866 171V163.909L728.435 148.568C729.844 147.205 731.026 145.977 731.98 144.886C732.95 143.795 733.685 142.727 734.185 141.682C734.685 140.621 734.935 139.477 734.935 138.25C734.935 136.886 734.624 135.712 734.003 134.727C733.382 133.727 732.533 132.962 731.457 132.432C730.382 131.886 729.162 131.614 727.798 131.614C726.374 131.614 725.132 131.902 724.071 132.477C723.01 133.053 722.192 133.879 721.616 134.955C721.041 136.03 720.753 137.311 720.753 138.795H711.412C711.412 135.75 712.101 133.106 713.48 130.864C714.859 128.621 716.791 126.886 719.276 125.659C721.76 124.432 724.624 123.818 727.866 123.818C731.2 123.818 734.101 124.409 736.571 125.591C739.056 126.758 740.988 128.379 742.366 130.455C743.745 132.53 744.435 134.909 744.435 137.591C744.435 139.348 744.086 141.083 743.389 142.795C742.707 144.508 741.488 146.409 739.73 148.5C737.973 150.576 735.495 153.068 732.298 155.977L725.503 162.636V162.955H745.048V171H711.866ZM761.952 150.818V171H752.27V136.091H761.497V142.25H761.906C762.679 140.22 763.974 138.614 765.793 137.432C767.611 136.235 769.815 135.636 772.406 135.636C774.83 135.636 776.944 136.167 778.747 137.227C780.55 138.288 781.952 139.803 782.952 141.773C783.952 143.727 784.452 146.061 784.452 148.773V171H774.77V150.5C774.785 148.364 774.24 146.697 773.134 145.5C772.027 144.288 770.505 143.682 768.565 143.682C767.262 143.682 766.111 143.962 765.111 144.523C764.126 145.083 763.353 145.902 762.793 146.977C762.247 148.038 761.967 149.318 761.952 150.818ZM804.946 171.568C802.295 171.568 799.893 170.886 797.741 169.523C795.605 168.144 793.908 166.121 792.651 163.455C791.408 160.773 790.787 157.485 790.787 153.591C790.787 149.591 791.431 146.265 792.719 143.614C794.007 140.947 795.719 138.955 797.855 137.636C800.007 136.303 802.363 135.636 804.923 135.636C806.878 135.636 808.507 135.97 809.81 136.636C811.128 137.288 812.188 138.106 812.991 139.091C813.81 140.061 814.431 141.015 814.855 141.955H815.151V124.455H824.81V171H815.264V165.409H814.855C814.401 166.379 813.757 167.341 812.923 168.295C812.105 169.235 811.037 170.015 809.719 170.636C808.416 171.258 806.825 171.568 804.946 171.568ZM808.014 163.864C809.575 163.864 810.893 163.439 811.969 162.591C813.06 161.727 813.893 160.523 814.469 158.977C815.06 157.432 815.355 155.621 815.355 153.545C815.355 151.47 815.067 149.667 814.491 148.136C813.916 146.606 813.082 145.424 811.991 144.591C810.901 143.758 809.575 143.341 808.014 143.341C806.423 143.341 805.082 143.773 803.991 144.636C802.901 145.5 802.075 146.697 801.514 148.227C800.954 149.758 800.673 151.53 800.673 153.545C800.673 155.576 800.954 157.371 801.514 158.932C802.09 160.477 802.916 161.689 803.991 162.568C805.082 163.432 806.423 163.864 808.014 163.864Z" fill="white"/>
<path d="M114.259 248.636C110.865 248.636 107.842 248.053 105.19 246.886C102.554 245.705 100.471 244.083 98.9403 242.023C97.4252 239.947 96.6449 237.553 96.5994 234.841H106.509C106.569 235.977 106.94 236.977 107.622 237.841C108.319 238.689 109.243 239.348 110.395 239.818C111.546 240.288 112.842 240.523 114.281 240.523C115.781 240.523 117.107 240.258 118.259 239.727C119.41 239.197 120.312 238.462 120.963 237.523C121.615 236.583 121.94 235.5 121.94 234.273C121.94 233.03 121.592 231.932 120.895 230.977C120.213 230.008 119.228 229.25 117.94 228.705C116.668 228.159 115.152 227.886 113.395 227.886H109.054V220.659H113.395C114.88 220.659 116.19 220.402 117.327 219.886C118.478 219.371 119.372 218.659 120.009 217.75C120.645 216.826 120.963 215.75 120.963 214.523C120.963 213.356 120.683 212.333 120.122 211.455C119.577 210.561 118.804 209.864 117.804 209.364C116.819 208.864 115.668 208.614 114.349 208.614C113.016 208.614 111.796 208.856 110.69 209.341C109.584 209.811 108.698 210.485 108.031 211.364C107.365 212.242 107.009 213.273 106.963 214.455H97.5312C97.5767 211.773 98.3419 209.409 99.8267 207.364C101.312 205.318 103.312 203.72 105.827 202.568C108.357 201.402 111.213 200.818 114.395 200.818C117.607 200.818 120.418 201.402 122.827 202.568C125.236 203.735 127.107 205.311 128.44 207.295C129.789 209.265 130.455 211.477 130.44 213.932C130.455 216.538 129.645 218.712 128.009 220.455C126.387 222.197 124.274 223.303 121.668 223.773V224.136C125.092 224.576 127.698 225.765 129.486 227.705C131.289 229.629 132.183 232.038 132.168 234.932C132.183 237.583 131.418 239.939 129.872 242C128.342 244.061 126.228 245.682 123.531 246.864C120.834 248.045 117.743 248.636 114.259 248.636ZM139.332 248V213.091H148.719V219.182H149.082C149.719 217.015 150.787 215.379 152.287 214.273C153.787 213.152 155.514 212.591 157.469 212.591C157.954 212.591 158.476 212.621 159.037 212.682C159.598 212.742 160.09 212.826 160.514 212.932V221.523C160.06 221.386 159.431 221.265 158.628 221.159C157.825 221.053 157.09 221 156.423 221C154.999 221 153.726 221.311 152.605 221.932C151.499 222.538 150.62 223.386 149.969 224.477C149.332 225.568 149.014 226.826 149.014 228.25V248H139.332ZM176.759 248.568C174.107 248.568 171.705 247.886 169.554 246.523C167.418 245.144 165.721 243.121 164.463 240.455C163.221 237.773 162.599 234.485 162.599 230.591C162.599 226.591 163.243 223.265 164.531 220.614C165.819 217.947 167.531 215.955 169.668 214.636C171.819 213.303 174.175 212.636 176.736 212.636C178.69 212.636 180.319 212.97 181.622 213.636C182.94 214.288 184.001 215.106 184.804 216.091C185.622 217.061 186.243 218.015 186.668 218.955H186.963V201.455H196.622V248H187.077V242.409H186.668C186.213 243.379 185.569 244.341 184.736 245.295C183.918 246.235 182.849 247.015 181.531 247.636C180.228 248.258 178.637 248.568 176.759 248.568ZM179.827 240.864C181.387 240.864 182.705 240.439 183.781 239.591C184.872 238.727 185.705 237.523 186.281 235.977C186.872 234.432 187.168 232.621 187.168 230.545C187.168 228.47 186.88 226.667 186.304 225.136C185.728 223.606 184.895 222.424 183.804 221.591C182.713 220.758 181.387 220.341 179.827 220.341C178.236 220.341 176.895 220.773 175.804 221.636C174.713 222.5 173.887 223.697 173.327 225.227C172.766 226.758 172.486 228.53 172.486 230.545C172.486 232.576 172.766 234.371 173.327 235.932C173.902 237.477 174.728 238.689 175.804 239.568C176.895 240.432 178.236 240.864 179.827 240.864Z" fill="white"/>
<defs>
<filter id="filter0_d_611_7" x="316" y="0" width="289" height="446" filterUnits="userSpaceOnUse" color-interpolation-filters="sRGB">
<feFlood flood-opacity="0" result="BackgroundImageFix"/>
<feColorMatrix in="SourceAlpha" type="matrix" values="0 0 0 0 0 0 0 0 0 0 0 0 0 0 0 0 0 0 127 0" result="hardAlpha"/>
<feOffset dy="4"/>
<feGaussianBlur stdDeviation="2"/>
<feComposite in2="hardAlpha" operator="out"/>
<feColorMatrix type="matrix" values="0 0 0 0 0 0 0 0 0 0 0 0 0 0 0 0 0 0 0.25 0"/>
<feBlend mode="normal" in2="BackgroundImageFix" result="effect1_dropShadow_611_7"/>
<feBlend mode="normal" in="SourceGraphic" in2="effect1_dropShadow_611_7" result="shape"/>
</filter>
<filter id="filter1_d_611_7" x="627" y="106" width="283" height="342" filterUnits="userSpaceOnUse" color-interpolation-filters="sRGB">
<feFlood flood-opacity="0" result="BackgroundImageFix"/>
<feColorMatrix in="SourceAlpha" type="matrix" values="0 0 0 0 0 0 0 0 0 0 0 0 0 0 0 0 0 0 127 0" result="hardAlpha"/>
<feOffset dy="4"/>
<feGaussianBlur stdDeviation="2"/>
<feComposite in2="hardAlpha" operator="out"/>
<feColorMatrix type="matrix" values="0 0 0 0 0 0 0 0 0 0 0 0 0 0 0 0 0 0 0.25 0"/>
<feBlend mode="normal" in2="BackgroundImageFix" result="effect1_dropShadow_611_7"/>
<feBlend mode="normal" in="SourceGraphic" in2="effect1_dropShadow_611_7" result="shape"/>
</filter>
<filter id="filter2_d_611_7" x="0" y="186" width="294" height="260" filterUnits="userSpaceOnUse" color-interpolation-filters="sRGB">
<feFlood flood-opacity="0" result="BackgroundImageFix"/>
<feColorMatrix in="SourceAlpha" type="matrix" values="0 0 0 0 0 0 0 0 0 0 0 0 0 0 0 0 0 0 127 0" result="hardAlpha"/>
<feOffset dy="4"/>
<feGaussianBlur stdDeviation="2"/>
<feComposite in2="hardAlpha" operator="out"/>
<feColorMatrix type="matrix" values="0 0 0 0 0 0 0 0 0 0 0 0 0 0 0 0 0 0 0.25 0"/>
<feBlend mode="normal" in2="BackgroundImageFix" result="effect1_dropShadow_611_7"/>
<feBlend mode="normal" in="SourceGraphic" in2="effect1_dropShadow_611_7" result="shape"/>
</filter>
<filter id="filter3_d_611_7" x="416" y="299" width="96" height="108" filterUnits="userSpaceOnUse" color-interpolation-filters="sRGB">
<feFlood flood-opacity="0" result="BackgroundImageFix"/>
<feColorMatrix in="SourceAlpha" type="matrix" values="0 0 0 0 0 0 0 0 0 0 0 0 0 0 0 0 0 0 127 0" result="hardAlpha"/>
<feOffset dy="4"/>
<feGaussianBlur stdDeviation="2"/>
<feComposite in2="hardAlpha" operator="out"/>
<feColorMatrix type="matrix" values="0 0 0 0 0 0 0 0 0 0 0 0 0 0 0 0 0 0 0.25 0"/>
<feBlend mode="normal" in2="BackgroundImageFix" result="effect1_dropShadow_611_7"/>
<feBlend mode="normal" in="SourceGraphic" in2="effect1_dropShadow_611_7" result="shape"/>
</filter>
<filter id="filter4_f_611_7" x="370" y="249" width="188" height="200" filterUnits="userSpaceOnUse" color-interpolation-filters="sRGB">
<feFlood flood-opacity="0" result="BackgroundImageFix"/>
<feBlend mode="normal" in="SourceGraphic" in2="BackgroundImageFix" result="shape"/>
<feGaussianBlur stdDeviation="25" result="effect1_foregroundBlur_611_7"/>
</filter>
<filter id="filter5_d_611_7" x="88" y="299" width="97" height="108" filterUnits="userSpaceOnUse" color-interpolation-filters="sRGB">
<feFlood flood-opacity="0" result="BackgroundImageFix"/>
<feColorMatrix in="SourceAlpha" type="matrix" values="0 0 0 0 0 0 0 0 0 0 0 0 0 0 0 0 0 0 127 0" result="hardAlpha"/>
<feOffset dy="4"/>
<feGaussianBlur stdDeviation="2"/>
<feComposite in2="hardAlpha" operator="out"/>
<feColorMatrix type="matrix" values="0 0 0 0 0 0 0 0 0 0 0 0 0 0 0 0 0 0 0.25 0"/>
<feBlend mode="normal" in2="BackgroundImageFix" result="effect1_dropShadow_611_7"/>
<feBlend mode="normal" in="SourceGraphic" in2="effect1_dropShadow_611_7" result="shape"/>
</filter>
<filter id="filter6_f_611_7" x="42" y="249" width="189" height="200" filterUnits="userSpaceOnUse" color-interpolation-filters="sRGB">
<feFlood flood-opacity="0" result="BackgroundImageFix"/>
<feBlend mode="normal" in="SourceGraphic" in2="BackgroundImageFix" result="shape"/>
<feGaussianBlur stdDeviation="25" result="effect1_foregroundBlur_611_7"/>
</filter>
<filter id="filter7_d_611_7" x="719" y="299" width="97" height="108" filterUnits="userSpaceOnUse" color-interpolation-filters="sRGB">
<feFlood flood-opacity="0" result="BackgroundImageFix"/>
<feColorMatrix in="SourceAlpha" type="matrix" values="0 0 0 0 0 0 0 0 0 0 0 0 0 0 0 0 0 0 127 0" result="hardAlpha"/>
<feOffset dy="4"/>
<feGaussianBlur stdDeviation="2"/>
<feComposite in2="hardAlpha" operator="out"/>
<feColorMatrix type="matrix" values="0 0 0 0 0 0 0 0 0 0 0 0 0 0 0 0 0 0 0.25 0"/>
<feBlend mode="normal" in2="BackgroundImageFix" result="effect1_dropShadow_611_7"/>
<feBlend mode="normal" in="SourceGraphic" in2="effect1_dropShadow_611_7" result="shape"/>
</filter>
<filter id="filter8_f_611_7" x="680" y="249" width="189" height="200" filterUnits="userSpaceOnUse" color-interpolation-filters="sRGB">
<feFlood flood-opacity="0" result="BackgroundImageFix"/>
<feBlend mode="normal" in="SourceGraphic" in2="BackgroundImageFix" result="shape"/>
<feGaussianBlur stdDeviation="25" result="effect1_foregroundBlur_611_7"/>
</filter>
</defs>
</svg>
