<svg width="1487" height="1661" viewBox="0 0 1487 1661" fill="none" xmlns="http://www.w3.org/2000/svg">
<g filter="url(#filter0_f_633_10)">
<path d="M513.976 845.329C469.807 713.739 537.965 566.756 666.212 517.033C794.459 467.309 934.229 533.675 978.399 665.265C1022.57 796.855 884.846 736.593 756.599 786.316C628.352 836.039 558.145 976.919 513.976 845.329Z" fill="#D08E00"/>
</g>
<g filter="url(#filter1_f_633_10)">
<path d="M965.539 799.64C1019.27 928.223 962.339 1079.71 838.372 1138C714.404 1196.29 570.348 1139.3 516.612 1010.72C462.877 882.136 604.441 933.157 728.409 874.87C852.376 816.582 911.803 671.058 965.539 799.64Z" fill="#41FF71"/>
</g>
<defs>
<filter id="filter0_f_633_10" x="0.523438" y="0.521484" width="1486.3" height="1399.49" filterUnits="userSpaceOnUse" color-interpolation-filters="sRGB">
<feFlood flood-opacity="0" result="BackgroundImageFix"/>
<feBlend mode="normal" in="SourceGraphic" in2="BackgroundImageFix" result="shape"/>
<feGaussianBlur stdDeviation="250" result="effect1_foregroundBlur_633_10"/>
</filter>
<filter id="filter1_f_633_10" x="4.89648" y="248.117" width="1480.88" height="1412.75" filterUnits="userSpaceOnUse" color-interpolation-filters="sRGB">
<feFlood flood-opacity="0" result="BackgroundImageFix"/>
<feBlend mode="normal" in="SourceGraphic" in2="BackgroundImageFix" result="shape"/>
<feGaussianBlur stdDeviation="250" result="effect1_foregroundBlur_633_10"/>
</filter>
</defs>
</svg>
