<svg width="3718" height="2843" viewBox="0 0 3718 2843" fill="none" xmlns="http://www.w3.org/2000/svg">
<path d="M1121.5 2075.5L1236 2165H1756H1857.5L1916 2143.5L2016.5 2185L2077 2273L2179 2343L2546.5 2355.5H2859H3707.5M1121.5 2075.5L1202 1941L1248 1830L1256 974.5L1193 893L1070 780L966 828.5H896L837.5 811L632 974.5L502.5 983L314.5 1177.5M1121.5 2075.5L998.5 2131L886.5 2260L789.5 2486.5L648 2400H10V2297.5L85 2156.5L89 1830L80 1344M1756 2815.5L2561 1510.5L2700.5 1172.5L2915.5 725" stroke="#FFFF00" stroke-width="20" stroke-miterlimit="7.6613" stroke-linecap="round"/>
<path d="M2867 2833V2042L3033.5 1902.5L3046 1678L3008.5 1603V1470L2971 1403V1245L3033.5 1151.5V1030.5L3108.5 941V731" stroke="#FFFF00" stroke-width="20" stroke-linecap="round"/>
<path d="M3576.5 1307H3475.5L3419.5 1277H2660L2526.5 1222.5L2425.5 1216L2316 1266H2229L2092 1188.5H1987L1856.5 1266L792.5 1251L703 1197.5L672 1141.5V1038L559.5 820" stroke="#FFFF00" stroke-width="20" stroke-linecap="round"/>
<path d="M1664 2239.5L1650 2163.5V1954.5L1664 1909.5M1664 1909.5L1791.5 1881M1664 1909.5L1675 1712L1783.5 1563.5V934.5L1926.5 780V372.5L1897.5 310.5M1897.5 310.5L1752 424L1586 572.5L1307 720H1200L1068 779M1897.5 310.5L2023.5 285L2128 196H2332M2332 196V731M2332 196V10" stroke="#FFFF00" stroke-width="20" stroke-miterlimit="7.6613" stroke-linecap="round"/>
<rect x="1754" y="1789" width="75" height="125" rx="2.5" fill="#FFFF00"/>
</svg>
