<svg width="3667" height="2089" viewBox="0 0 3667 2089" fill="none" xmlns="http://www.w3.org/2000/svg">
<path d="M1491.93 2070.68C1488.72 2076.79 1491.08 2084.35 1497.19 2087.56C1503.3 2090.77 1510.86 2088.42 1514.07 2082.3L1491.93 2070.68ZM1605.5 1861L1593.71 1856.85L1593.71 1856.85L1605.5 1861ZM1703.5 1472.5L1691.36 1469.52L1691.28 1469.83L1691.22 1470.15L1703.5 1472.5ZM1806 1054.5L1794.34 1050L1794.05 1050.74L1793.86 1051.52L1806 1054.5ZM1942.5 700.495L1931.52 694.523L1931.13 695.238L1930.84 695.998L1942.5 700.495ZM2181.5 260.995L2171.45 253.554L2170.93 254.256L2170.52 255.023L2181.5 260.995ZM2375.94 20.0834C2380.13 14.5954 2379.07 6.75131 2373.58 2.56311C2368.1 -1.6251 2360.25 -0.57141 2356.06 4.91658L2375.94 20.0834ZM1514.07 2082.3C1534.72 2042.96 1585.16 1956.43 1617.29 1865.15L1593.71 1856.85C1562.37 1945.89 1513.28 2030.03 1491.93 2070.68L1514.07 2082.3ZM1617.29 1865.15C1643.51 1790.64 1668.14 1692.95 1686.16 1614.19C1695.19 1574.74 1702.59 1539.92 1707.73 1514.97C1710.31 1502.48 1712.31 1492.47 1713.68 1485.56C1714.36 1482.11 1714.89 1479.44 1715.24 1477.62C1715.42 1476.71 1715.55 1476.02 1715.64 1475.56C1715.68 1475.32 1715.72 1475.15 1715.74 1475.03C1715.75 1474.97 1715.76 1474.92 1715.77 1474.89C1715.77 1474.88 1715.77 1474.86 1715.77 1474.86C1715.77 1474.85 1715.78 1474.85 1715.78 1474.85C1715.78 1474.84 1715.78 1474.84 1703.5 1472.5C1691.22 1470.15 1691.22 1470.15 1691.22 1470.15C1691.22 1470.15 1691.22 1470.15 1691.22 1470.16C1691.22 1470.16 1691.22 1470.17 1691.21 1470.19C1691.21 1470.22 1691.2 1470.26 1691.19 1470.31C1691.17 1470.43 1691.13 1470.6 1691.09 1470.83C1691 1471.28 1690.87 1471.96 1690.7 1472.85C1690.35 1474.64 1689.83 1477.28 1689.16 1480.71C1687.8 1487.55 1685.81 1497.51 1683.25 1509.92C1678.13 1534.74 1670.77 1569.38 1661.79 1608.61C1643.81 1687.2 1619.43 1783.75 1593.71 1856.85L1617.29 1865.15ZM1715.64 1475.47L1818.14 1057.47L1793.86 1051.52L1691.36 1469.52L1715.64 1475.47ZM1817.66 1058.99L1954.16 704.992L1930.84 695.998L1794.34 1050L1817.66 1058.99ZM1953.48 706.467L2192.48 266.966L2170.52 255.023L1931.52 694.523L1953.48 706.467ZM2181.5 260.995C2191.54 268.435 2191.54 268.434 2191.55 268.433C2191.55 268.431 2191.55 268.428 2191.55 268.425C2191.56 268.418 2191.56 268.407 2191.57 268.393C2191.59 268.366 2191.63 268.324 2191.67 268.269C2191.75 268.159 2191.87 267.994 2192.03 267.777C2192.35 267.342 2192.83 266.696 2193.46 265.854C2194.7 264.168 2196.54 261.694 2198.88 258.538C2203.55 252.226 2210.25 243.187 2218.33 232.282C2234.49 210.471 2256.2 181.191 2278.35 151.319C2322.71 91.5044 2368.76 29.4935 2375.94 20.0834L2356.06 4.91658C2348.74 14.5065 2302.54 76.743 2258.27 136.426C2236.11 166.302 2214.41 195.584 2198.25 217.397C2190.16 228.303 2183.47 237.343 2178.79 243.655C2176.45 246.812 2174.62 249.286 2173.37 250.972C2172.74 251.815 2172.26 252.46 2171.94 252.895C2171.78 253.113 2171.66 253.277 2171.58 253.388C2171.54 253.443 2171.51 253.485 2171.49 253.512C2171.48 253.526 2171.47 253.537 2171.46 253.544C2171.46 253.547 2171.46 253.55 2171.46 253.552C2171.46 253.553 2171.45 253.554 2181.5 260.995Z" fill="white"/>
<path d="M13 1107H1592.5L1687.5 1069.5H1946L2128 1107L2284 1127L2384.5 1117L3654 1127" stroke="white" stroke-width="25" stroke-miterlimit="7.6613" stroke-linecap="round"/>
</svg>
