<svg width="3698" height="2843" viewBox="0 0 3698 2843" fill="none" xmlns="http://www.w3.org/2000/svg">
<rect x="71" y="1340" width="75" height="125" rx="2.5" fill="#41E3F0"/>
<path d="M1092 2058L1222 2145.5H1611H1830.5L1898.5 2123L2007.5 2168L2066 2255L2164.5 2323L2549.5 2336.5H2864H3688M1092 2058L1166 1930.5L1208 1826L1216 981.5L1157.5 904L1046.5 803L949.5 847.5L865.5 845.5L821 832.5L628.5 987L491.5 1002L310.5 1190M1092 2058L967.5 2114L849 2251.5L761.5 2458.5L631.5 2380H10V2297.5L85 2156.5L89 1830L80.5 1368.5M1756 2815.5L2561 1514.5L2700.5 1172.5L2916.5 727.5" stroke="#41E3F0" stroke-width="20" stroke-miterlimit="7.6613" stroke-linecap="round"/>
<path d="M2867 2833V2051L3033 1912L3046 1678L3008.5 1603V1470L2971 1403V1245L3033.5 1151.5V1030.5L3108.5 941V731" stroke="#41E3F0" stroke-width="20" stroke-linecap="round"/>
<path d="M3559 1289L3460 1287L3404.5 1257L2647.5 1259L2511.5 1203.5L2402 1196L2292.5 1248H2216.5L2077 1169H1961.5L1831 1246L780 1233L698.5 1184L671 1136.5V1032L555 809.5" stroke="#41E3F0" stroke-width="20" stroke-linecap="round"/>
<path d="M1664 2239.5L1650 2163.5V1954.5L1660 1924M1660 1924L1764 1899.5M1660 1924L1674.5 1719.5L1783.5 1569.5V942L1926.5 788V372.5L1897.5 324.5M1897.5 324.5L2014 302L2116 215H2332M1897.5 324.5L1873.5 336L1750 434L1576 589.5L1292 738.5H1187L1052.5 798M2332 215V731M2332 215V10" stroke="#41E3F0" stroke-width="20" stroke-miterlimit="7.6613" stroke-linecap="round"/>
</svg>
